<?xml version="1.0" standalone="no"?>
<!DOCTYPE svg PUBLIC "-//W3C//DTD SVG 20010904//EN"
 "http://www.w3.org/TR/2001/REC-SVG-20010904/DTD/svg10.dtd">
<svg version="1.0" xmlns="http://www.w3.org/2000/svg"
 width="457.000000pt" height="457.000000pt" viewBox="0 0 457.000000 457.000000"
 preserveAspectRatio="xMidYMid meet">

<g transform="translate(0.000000,457.000000) scale(0.100000,-0.100000)"
fill="#000000" stroke="none">
<path d="M2208 3663 c-21 -24 -30 -56 -37 -127 l-6 -60 -50 -12 c-76 -20 -102
-65 -73 -129 15 -34 25 -32 42 10 10 23 22 35 34 35 41 0 60 -57 42 -130 l-12
-50 -69 0 c-50 0 -71 -4 -75 -14 -3 -7 11 -39 31 -70 52 -82 55 -109 15 -146
-26 -25 -41 -30 -80 -30 -39 0 -57 6 -92 33 -41 31 -43 36 -46 90 l-3 57 -34
0 c-30 0 -35 -3 -35 -23 0 -13 7 -32 15 -43 26 -34 18 -71 -26 -119 -22 -24
-56 -49 -75 -55 -73 -24 -164 17 -207 92 -37 64 -40 90 -17 147 l20 51 -25 16
c-24 16 -28 15 -86 -11 -36 -16 -71 -25 -86 -22 -14 3 -42 0 -61 -5 l-36 -10
26 -22 c15 -11 49 -38 77 -59 128 -97 311 -425 311 -558 l0 -50 33 5 c357 58
781 71 997 30 125 -23 218 -34 234 -28 11 4 16 20 16 50 0 77 71 243 165 384
63 96 110 145 198 212 55 42 61 37 -66 56 -38 6 -77 18 -87 27 -13 12 -27 15
-54 10 -41 -8 -42 -12 -21 -62 31 -74 9 -151 -61 -212 -94 -83 -196 -66 -252
42 -24 47 -24 50 -8 84 18 38 14 68 -11 77 -29 11 -54 -22 -47 -64 8 -49 -7
-75 -58 -101 -70 -36 -160 -9 -182 54 -8 21 -2 37 32 94 23 38 42 72 42 76 0
4 -27 7 -59 7 -86 0 -106 19 -106 100 0 50 4 64 20 76 29 21 48 13 59 -24 11
-38 19 -40 40 -10 39 55 9 112 -69 131 l-49 13 -13 84 c-12 75 -32 120 -53
120 -4 0 -14 -8 -22 -17z"/>
<path d="M67 2172 c-24 -26 -21 -59 6 -76 29 -20 62 -11 76 21 24 54 -43 98
-82 55z"/>
<path d="M260 2167 c-57 -38 -73 -77 -78 -193 -6 -140 -2 -154 47 -154 l39 0
4 126 c3 118 4 127 27 145 30 24 34 24 68 -5 28 -24 28 -25 28 -143 l0 -118
43 -3 42 -3 0 124 c0 135 7 153 60 159 42 5 60 -47 60 -174 l0 -108 39 0 40 0
7 56 c11 89 -1 197 -26 242 -37 66 -114 89 -184 56 -32 -16 -37 -16 -75 0 -57
22 -102 20 -141 -7z"/>
<path d="M1221 2175 c-107 -33 -159 -148 -112 -250 20 -46 79 -102 117 -111
47 -12 121 2 157 29 114 87 82 300 -49 336 -48 13 -58 13 -113 -4z m104 -81
c23 -9 45 -58 45 -102 0 -87 -98 -125 -161 -63 -23 24 -29 38 -29 73 1 45 12
67 45 86 22 12 74 16 100 6z"/>
<path d="M2786 2174 c-33 -32 -8 -84 41 -84 34 0 53 16 53 45 -1 49 -60 74
-94 39z"/>
<path d="M3041 2176 c-51 -17 -86 -47 -112 -98 -58 -113 36 -268 162 -268 84
0 142 38 174 112 21 53 19 105 -9 164 -40 85 -122 119 -215 90z m104 -82 c38
-15 58 -102 33 -147 -18 -34 -40 -46 -81 -47 -29 0 -45 7 -68 29 -79 79 9 206
116 165z"/>
<path d="M3435 2180 c-39 -12 -84 -54 -100 -94 -17 -42 -28 -165 -19 -221 6
-44 7 -45 45 -45 l39 0 0 93 c0 145 19 187 85 187 67 0 85 -39 85 -182 l0 -99
43 3 42 3 5 54 c13 124 -25 249 -85 283 -38 22 -101 30 -140 18z"/>
<path d="M3842 2175 c-125 -39 -182 -145 -133 -250 37 -81 90 -105 231 -105
l100 0 0 45 0 45 -96 0 c-114 0 -150 15 -160 67 -13 68 17 108 89 120 50 8 87
-3 87 -26 0 -24 -19 -31 -81 -31 l-49 0 0 -40 c0 -44 -1 -44 85 -41 67 3 103
18 120 52 34 64 8 138 -57 164 -46 18 -79 18 -136 0z"/>
<path d="M720 2000 l0 -180 40 0 c37 0 39 2 46 34 7 38 18 46 60 41 59 -7 122
15 155 52 29 34 31 40 27 101 -4 55 -8 68 -31 88 -38 33 -88 44 -199 44 l-98
0 0 -180z m224 84 c11 -4 16 -19 16 -45 0 -47 -21 -59 -101 -59 l-49 0 0 55 0
55 59 0 c33 0 66 -3 75 -6z"/>
<path d="M1613 2164 c-20 -10 -40 -32 -52 -58 -22 -45 -84 -215 -95 -258 -6
-27 -5 -28 38 -28 l44 0 20 58 c11 31 30 86 42 122 28 83 34 90 81 90 l39 0 0
45 0 45 -42 0 c-24 0 -57 -8 -75 -16z"/>
<path d="M1775 2148 c10 -46 81 -233 102 -268 21 -36 68 -60 117 -60 35 0 36
1 36 39 0 37 -1 39 -45 50 -42 11 -45 14 -60 63 -16 54 -13 64 20 70 16 2 21
12 23 46 l3 42 -49 0 c-42 0 -50 3 -60 25 -10 21 -19 25 -53 25 l-41 0 7 -32z"/>
<path d="M2100 2142 l0 -40 76 -4 c60 -3 79 -7 90 -22 18 -25 9 -36 -24 -34
-77 5 -110 -2 -141 -31 -26 -24 -31 -36 -31 -75 0 -36 6 -52 29 -78 28 -32 33
-33 115 -37 l86 -3 0 46 0 45 -67 3 c-60 3 -68 5 -68 23 0 17 8 21 45 23 24 2
59 1 77 -3 29 -5 34 -12 53 -70 l22 -65 44 0 c52 0 53 -13 -2 142 -69 199 -81
212 -210 216 l-94 4 0 -40z"/>
<path d="M2556 2165 c-98 -35 -142 -142 -100 -242 30 -73 91 -102 217 -103
l67 0 0 45 0 45 -80 0 c-73 0 -83 3 -105 25 -31 30 -34 92 -7 125 19 23 77 39
150 40 l42 0 0 40 0 40 -72 0 c-40 -1 -90 -7 -112 -15z"/>
<path d="M4309 2172 c-53 -24 -82 -64 -120 -169 -27 -73 -43 -91 -83 -95 -29
-3 -31 -6 -34 -45 -3 -41 -2 -43 25 -43 44 0 94 17 120 42 13 12 32 50 43 85
17 54 44 119 56 132 3 3 23 7 47 10 41 6 42 7 42 46 0 40 0 40 -40 42 -22 1
-47 -1 -56 -5z"/>
<path d="M60 1941 l0 -121 40 0 40 0 2 105 c0 58 1 111 2 118 1 7 -15 13 -41
15 l-43 3 0 -120z"/>
<path d="M2780 1953 c0 -59 4 -114 9 -121 5 -8 22 -12 41 -10 43 4 49 25 41
144 l-6 89 -42 3 -43 3 0 -108z"/>
<path d="M10 1730 c0 -20 7 -20 2193 -20 2186 0 2193 0 2193 20 0 20 -7 20
-2193 20 -2186 0 -2193 0 -2193 -20z"/>
<path d="M3218 1630 c-150 -26 -308 -112 -348 -191 -25 -47 -25 -61 -2 -82 25
-23 30 -21 24 8 -16 86 234 252 385 256 15 0 37 4 48 9 26 11 -40 11 -107 0z"/>
<path d="M3402 1614 c90 -27 112 -93 54 -160 -60 -69 -231 -153 -314 -154
l-34 0 31 39 c59 74 172 190 192 196 25 8 15 25 -15 25 -34 0 -142 -98 -206
-188 -18 -25 -26 -30 -28 -18 -2 9 -7 16 -10 16 -13 0 -32 -39 -26 -54 4 -9
-14 -49 -40 -93 -26 -43 -49 -88 -52 -100 -9 -36 1 -52 28 -45 18 5 20 7 6 10
-10 2 -18 7 -18 12 0 10 87 137 99 144 5 3 23 -15 40 -40 37 -50 118 -115 174
-139 20 -8 60 -15 89 -14 l53 1 -58 14 c-72 17 -107 35 -159 82 -60 54 -127
151 -88 127 21 -13 154 16 225 49 193 89 233 228 83 291 -21 8 -45 15 -55 14
-10 0 3 -7 29 -15z"/>
<path d="M4139 1367 c-57 -30 -75 -64 -50 -92 25 -29 21 -46 -18 -72 -42 -29
-61 -30 -30 -2 l24 20 -27 -16 c-32 -20 -43 -44 -23 -51 35 -14 125 34 125 65
0 11 -10 29 -22 41 l-22 20 25 26 c41 45 130 75 93 32 l-19 -23 21 18 c27 23
21 57 -11 57 -12 0 -42 -10 -66 -23z"/>
<path d="M3502 1350 c-65 -38 -123 -113 -120 -155 3 -26 7 -30 35 -33 36 -4
120 36 150 71 12 13 1 9 -29 -11 -60 -41 -91 -53 -109 -41 -18 11 -2 39 30 55
16 8 19 13 9 17 -9 4 0 18 28 44 45 41 104 79 104 66 -1 -11 -49 -63 -84 -90
-43 -34 -18 -28 36 9 56 39 80 75 58 88 -25 16 -53 11 -108 -20z"/>
<path d="M3654 1323 c-27 -31 -49 -61 -50 -67 -2 -6 -8 -25 -15 -43 -10 -25
-10 -34 0 -47 17 -21 34 -11 117 67 l67 62 -57 -86 c-77 -120 -150 -272 -141
-298 3 -12 10 -21 14 -21 4 0 31 35 60 78 45 66 47 72 17 40 -20 -21 -36 -35
-36 -32 0 3 25 50 55 104 57 101 126 200 175 249 22 21 26 31 17 40 -6 6 -15
11 -21 11 -5 0 -53 -43 -107 -95 -54 -52 -103 -95 -109 -95 -25 0 30 101 79
144 16 15 18 22 10 33 -18 20 -23 17 -75 -44z"/>
<path d="M3965 1363 c-114 -61 -183 -182 -118 -207 20 -8 131 44 159 75 12 13
-2 8 -36 -15 -49 -32 -110 -48 -110 -28 0 17 32 52 48 52 13 0 14 2 4 9 -11 6
-7 16 16 42 31 36 112 87 112 71 0 -17 -40 -60 -76 -82 -38 -24 -40 -39 -2
-20 32 17 98 81 98 96 0 27 -51 31 -95 7z"/>
<path d="M3719 1063 c-13 -16 -12 -17 4 -4 16 13 21 21 13 21 -2 0 -10 -8 -17
-17z"/>
</g>
</svg>
